# xmcd
#
# Track frame offsets: 
#        150
#        18617
#        35322
#        51880
#        67231
#        84592
#        104593
#        122877
#        137502
#        148149
#        168097
#        180716
#        198229
#
# Disc length: 2876 seconds
#
# Revision: 0
# Processed by: cddbd v1.5.2PL0 Copyright (c) Steve Scherf et al.
# Submitted via: ExactAudioCopy v0.99pb5
#
DISCID=bc0b3a0d
DTITLE=Kerry Gilbert Band - The Song Remembers When
DYEAR=2010
DGENRE=Country
TTITLE0=The Song Remembers When
TTITLE1=Crazy In Love
TTITLE2=I'm So Lonesome I Could Cry
TTITLE3=Her
TTITLE4=Ghost In This House
TTITLE5=When I First Saw You
TTITLE6=I Go Crazy
TTITLE7=Are You Lonesome Tonight
TTITLE8=Today I Started Loving You Again
TTITLE9=Amanda
TTITLE10=One Friend
TTITLE11=Because You Love Me
TTITLE12=For The Good Times
EXTD=
EXTT0=
EXTT1=
EXTT2=
EXTT3=
EXTT4=
EXTT5=
EXTT6=
EXTT7=
EXTT8=
EXTT9=
EXTT10=
EXTT11=
EXTT12=
PLAYORDER=
